<?xml version="1.0" encoding="UTF-8"?>
<svg xmlns="http://www.w3.org/2000/svg" viewBox="0 0 74.09 88.61">
  <g id="Layer_2" data-name="Layer 2">
    <g id="Layer_1-2" data-name="Layer 1">
      <path d="M48.42,9.38a9.66,9.66,0,0,0-6.11,1.47,26.37,26.37,0,0,1-8.53,3.81s-4.26,1.83-11.82-.5a38.28,38.28,0,0,1-5.9-3.29c-2.61-1.78-7.57-2.16-11.36.27C2,12.9-1,16.69.34,24.79A67.83,67.83,0,0,0,5.46,42.3a28.15,28.15,0,0,1,2.7,9.32,132.34,132.34,0,0,0,4.7,21.51c4.34,14.26,7.43,15.4,8,15.48a.24.24,0,0,0,.22-.06c1.42-1.19,1.7-8.2,1.9-13.31.38-9.67.74-18.8,6.19-18.8s5.81,9.13,6.19,18.8c.2,5.11.47,12.12,1.91,13.31a.22.22,0,0,0,.21.06c.57-.08,3.66-1.22,8-15.48a132.34,132.34,0,0,0,4.7-21.51,22.27,22.27,0,0,1,1-5.11l-3.62-18a2.63,2.63,0,0,0-2.06-2.07L18.12,21l27.43-5.52a2.63,2.63,0,0,0,2.06-2.06l.81-4ZM60.17,23.76,74.09,21l-13.92-2.8a5.41,5.41,0,0,1-4.24-4.24L53.13,0l-2.8,13.92a5.41,5.41,0,0,1-4.24,4.24L32.17,21l13.92,2.8A5.41,5.41,0,0,1,50.33,28l2.8,13.92L55.93,28a5.41,5.41,0,0,1,4.24-4.24Z" style="fill:#ac8349"></path>
    </g>
  </g>
</svg>
