<?xml version="1.0" encoding="UTF-8"?>
<svg xmlns="http://www.w3.org/2000/svg" viewBox="0 0 94.8 107.47">
  <g id="Layer_2" data-name="Layer 2">
    <g id="Layer_1-2" data-name="Layer 1">
      <path d="M16.15,38.54l-1.87-4.17-1.45-3.25-4.92-11A1.39,1.39,0,1,1,10.44,19l4.36,9.73L16,31.47l1.39,3.11L20,28.74l1.44-3.21L24.38,19a1.39,1.39,0,1,1,2.53,1.13l-2.34,5.21-1.23,2.76L18.67,38.54a1.38,1.38,0,0,1-2.52,0ZM41.66,9.62a5.93,5.93,0,0,1,5.92,5.92,1.23,1.23,0,1,0,2.46,0A5.92,5.92,0,0,1,56,9.62a1.24,1.24,0,0,0,0-2.47A5.93,5.93,0,0,1,50,1.23a1.23,1.23,0,1,0-2.46,0,5.93,5.93,0,0,1-5.92,5.92,1.24,1.24,0,0,0,0,2.47ZM93.57,36.74a5.93,5.93,0,0,1-5.92-5.92,1.23,1.23,0,0,0-2.46,0,5.93,5.93,0,0,1-5.92,5.92,1.23,1.23,0,0,0,0,2.46,5.93,5.93,0,0,1,5.92,5.92,1.23,1.23,0,1,0,2.46,0,5.92,5.92,0,0,1,5.92-5.92,1.23,1.23,0,1,0,0-2.46ZM64.91,29.52c-3.65-2.22-8.24-1.75-10.58,0a25.51,25.51,0,0,1-8.58,3.9,39.76,39.76,0,0,1-9,.33A20.21,20.21,0,0,1,14.48,47.92a66.3,66.3,0,0,0,4.14,13.17,28.56,28.56,0,0,1,2.61,9.3,128.5,128.5,0,0,0,3.52,17.79,2,2,0,0,1,.09.35c.3,1.15.62,2.29.95,3.4C30,106.24,33,107.38,33.56,107.46a.18.18,0,0,0,.19,0c1.42-1.18,1.68-8.24,1.88-13.39.37-9.64.71-18.75,6-18.75s5.6,9.11,6,18.75c.19,5.15.46,12.21,1.88,13.39a.18.18,0,0,0,.19,0c.56-.08,3.56-1.22,7.77-15.53A137,137,0,0,0,62,70.39a28.31,28.31,0,0,1,2.61-9.3,69.16,69.16,0,0,0,5-17.54C70.61,37,69,32,64.91,29.52Zm-30.73,3.1a17.49,17.49,0,0,0,.55-2.83c.05-.61.09-1.22.09-1.84A17.41,17.41,0,1,0,11,44.11a16.86,16.86,0,0,0,3,.9,17.68,17.68,0,0,0,3.5.35A17.42,17.42,0,0,0,34.18,32.62Z" style="fill:#ac8349"></path>
    </g>
  </g>
</svg>
