<?xml version="1.0" encoding="UTF-8"?>
<svg xmlns="http://www.w3.org/2000/svg" viewBox="0 0 93.51 94.48">
  <g id="Layer_2" data-name="Layer 2">
    <g id="Layer_1-2" data-name="Layer 1">
      <path d="M34.49,28.81h-.25a5.65,5.65,0,0,0-4.16,1.69c-1.08,1.12-1.37,4-.78,7.93.15,1.07.4,2.68,1.13,3.38a1,1,0,0,0,1.09.19c.08,0,.24-.12.17-.54A50.27,50.27,0,0,1,31,34.7a8.08,8.08,0,0,1,.12-1.6c.29-1.46,1.51-2.46,3.43-2.8a.74.74,0,0,0,.62-.71v-.06a.72.72,0,0,0-.71-.72ZM13.63,35.72a5.3,5.3,0,0,1-5.29-5.29,1,1,0,0,0-2,0A5.3,5.3,0,0,1,1,35.72a1,1,0,1,0,0,2,5.3,5.3,0,0,1,5.29,5.29,1,1,0,1,0,2,0,5.3,5.3,0,0,1,5.29-5.29,1,1,0,0,0,0-2ZM56.16,8.34a5.29,5.29,0,0,1,5.29,5.29,1,1,0,1,0,2,0,5.29,5.29,0,0,1,5.29-5.29,1,1,0,1,0,0-2A5.29,5.29,0,0,1,63.49,1a1,1,0,1,0-2,0,5.29,5.29,0,0,1-5.29,5.29,1,1,0,1,0,0,2ZM92.49,57.62a5.3,5.3,0,0,1-5.29-5.29,1,1,0,1,0-2,0,5.3,5.3,0,0,1-5.29,5.29,1,1,0,0,0,0,2,5.3,5.3,0,0,1,5.29,5.28,1,1,0,1,0,2,0,5.3,5.3,0,0,1,5.29-5.28,1,1,0,1,0,0-2Zm-55.25-28a2.77,2.77,0,0,1-2.3,2.71q-1.61.3-1.8,1.2a31.44,31.44,0,0,0,.57,7.64,4.22,4.22,0,0,1,0,.49,2.35,2.35,0,0,1-1.28,2.16,2.74,2.74,0,0,1-1.32.32A3.13,3.13,0,0,1,29,43.28c-1.24-1.18-1.55-3.21-1.75-4.56-.71-4.75-.26-8,1.33-9.64a7.7,7.7,0,0,1,6-2.31,2.76,2.76,0,0,1,2.68,2.76v.06ZM71,24.29c-3.5-2.17-8-1.77-10.23-.12a24.45,24.45,0,0,1-8.37,3.59,27.31,27.31,0,0,1-10.35-.88,34,34,0,0,1-4.73-2.7c-2.4-1.63-6.95-2-10.41.24C24.44,26,21.71,29.5,23,36.88a61.29,61.29,0,0,0,4.62,15.8A25.16,25.16,0,0,1,30,61a120.11,120.11,0,0,0,4.24,19.4c3.05,10,5.79,13.82,7.34,14a.41.41,0,0,0,.32-.09c1.34-1.12,1.58-7.21,1.77-12.11.34-8.62.66-16.77,5.41-16.77s5.07,8.15,5.41,16.77c.19,4.9.43,11,1.78,12.11a.38.38,0,0,0,.31.09c1.55-.23,4.3-4,7.34-14A119,119,0,0,0,68.15,61a25.16,25.16,0,0,1,2.42-8.35,61.29,61.29,0,0,0,4.62-15.8c1-5.84-.49-10.31-4.15-12.59Z" style="fill:#ac8349"></path>
    </g>
  </g>
</svg>
