<?xml version="1.0" encoding="UTF-8"?>
<svg xmlns="http://www.w3.org/2000/svg" viewBox="0 0 107.37 80.53">
  <g id="Layer_2" data-name="Layer 2">
    <g id="Layer_1-2" data-name="Layer 1">
      <path d="M106.4,71.33l-2.07,5.07a6.49,6.49,0,0,1-6,4.13H9.05a6.46,6.46,0,0,1-5.91-3.89L1,71.33A9.14,9.14,0,0,1,0,66.66a8.23,8.23,0,0,1,.39-1.89A10.25,10.25,0,0,1,5.23,59l.69-.38H33.18a44.91,44.91,0,0,0,41,0h27.27l.68.38A10.25,10.25,0,0,1,107,64.77a7.29,7.29,0,0,1,.38,1.89,9.13,9.13,0,0,1-.94,4.67Zm-3.11-40.69a6.61,6.61,0,0,0-6.9-.09,16.52,16.52,0,0,1-5.28,2.36S88.48,34,83.8,32.6a24.76,24.76,0,0,1-3.65-2,6.81,6.81,0,0,0-7,.17c-1.69,1.08-3.54,3.43-2.69,8.44A41.82,41.82,0,0,0,73.59,50a24.5,24.5,0,0,1,1.21,3.21h26.92A26,26,0,0,1,102.93,50a41.82,41.82,0,0,0,3.16-10.83c.67-4-.32-7-2.8-8.53Zm-68.73,0a6.63,6.63,0,0,0-6.91-.09,16.56,16.56,0,0,1-5.27,2.36S19.74,34,15.06,32.6a24.76,24.76,0,0,1-3.65-2,6.81,6.81,0,0,0-7,.17C2.69,31.81.85,34.16,1.69,39.17A41.72,41.72,0,0,0,4.86,50a26,26,0,0,1,1.2,3.21H33A27.73,27.73,0,0,1,34.19,50a41.82,41.82,0,0,0,3.16-10.83c.68-4-.32-7-2.79-8.53Zm15.16,12a3.84,3.84,0,1,0,3.83-3.81,3.74,3.74,0,0,0-3.83,3.81ZM44.89,11.82h.16A2.68,2.68,0,0,0,47.63,9.7a6.25,6.25,0,0,1,6.49-5c4.12,0,6.68,2.68,6.68,6.45C60.8,19.94,50.64,21,50.64,32v.89a2.59,2.59,0,0,0,2.62,2.57h.38a2.59,2.59,0,0,0,2.61-2.57v-.57c0-9.58,10.09-10.48,10.09-21.22C66.34,4.54,61.23,0,54.12,0c-6,0-10.3,3.22-11.77,8.59a2.59,2.59,0,0,0,2.54,3.23Z" style="fill:#ac8349"></path>
    </g>
  </g>
</svg>
