<?xml version="1.0" encoding="UTF-8"?>
<svg xmlns="http://www.w3.org/2000/svg" viewBox="0 0 86.8 96.46">
  <g id="Layer_2" data-name="Layer 2">
    <g id="Layer_1-2" data-name="Layer 1">
      <path d="M43.5,5.17a5,5,0,1,1-5,4.95,5,5,0,0,1,5-4.95ZM47.85,16.5A29.16,29.16,0,0,1,64.17,27.1a94.46,94.46,0,0,1-2.33,12.58,89.53,89.53,0,0,1-37.09-.07,97.46,97.46,0,0,1-2.07-12.37c1-1.62,5.82-8.47,16.7-10.59a7.68,7.68,0,0,0,8.47-.15ZM67.07,32.86c.34.57.44,2.06-3.62,5.17A54.31,54.31,0,0,0,65,31.76a3.34,3.34,0,0,1,2,1.1Zm-24,31.39a16.2,16.2,0,0,0,6.75-1.44c.36,6.38,2.26,9.46,4.24,10.91L43.4,87.82,32.73,73.75c2.67-1.78,4.13-5.28,4.42-10.61a16.17,16.17,0,0,0,6,1.11ZM21.7,31.79a55.8,55.8,0,0,0,1.48,6c-4-2.92-3.9-4.35-3.57-4.91a3.45,3.45,0,0,1,2.09-1.1ZM61,42.7C58,52.45,52.6,61.48,43.1,61.48S28.39,52.41,25.55,42.63a91.6,91.6,0,0,0,18.1,1.77A87.24,87.24,0,0,0,61,42.7ZM35.54,49.15a41,41,0,0,0,8.55.93,27,27,0,0,0,7.43-.95,1.23,1.23,0,0,0-.69-2.36c-6.53,1.9-14.63,0-14.72,0a1.23,1.23,0,0,0-1.48.91,1.25,1.25,0,0,0,.91,1.49ZM37,54.41a26.87,26.87,0,0,0,7,1,18.11,18.11,0,0,0,6.12-1,1.23,1.23,0,0,0-.83-2.32c-5.12,1.85-11.51,0-11.6,0A1.23,1.23,0,1,0,37,54.41ZM56.36,2.09a27.89,27.89,0,0,1,6.07,2.79,6.52,6.52,0,0,1,3,5.93l-.49,7.63a1.14,1.14,0,0,0,0,.33c0,.05,0,.68-.09,1.73l0,.95c0,.52-.09,1.12-.14,1.77a32.17,32.17,0,0,0-14.54-9,7.72,7.72,0,1,0-13,.1A28.4,28.4,0,0,0,22.39,23l-.23-3.59c0-.39,0-.62,0-.65a1.35,1.35,0,0,0-.06-.35l-.49-7.63a6.52,6.52,0,0,1,3-5.93,27.89,27.89,0,0,1,6.07-2.79,40.56,40.56,0,0,1,25.72,0ZM70.18,80.16A28.63,28.63,0,0,1,86.8,96.46h-42V91l18.45-8a1.38,1.38,0,0,0,.8-.93,1.4,1.4,0,0,0-.26-1.2l-3.69-4.64,10.1,3.9ZM22.77,82.1a1.34,1.34,0,0,0,.79.93L42,91v5.45H0a28.58,28.58,0,0,1,16.61-16.3l10.1-3.9L23,80.9a1.37,1.37,0,0,0-.26,1.2Zm8-6.42,8.39,11.06L26.32,81.21l4.4-5.53Zm25.36,0,4.39,5.53L47.68,86.74l8.4-11.06ZM43.5,11.57a1.45,1.45,0,1,0-1.44-1.45,1.45,1.45,0,0,0,1.44,1.45Z" style="fill:#ac8349"></path>
    </g>
  </g>
</svg>
