<?xml version="1.0" encoding="UTF-8"?>
<svg xmlns="http://www.w3.org/2000/svg" viewBox="0 0 55.53 75.46">
  <g id="Layer_2" data-name="Layer 2">
    <g id="Layer_1-2" data-name="Layer 1">
      <path d="M49.16.7a10,10,0,0,0-8.87.72,25,25,0,0,1-8.14,3.63A24.4,24.4,0,0,1,18.58,3.43a36.93,36.93,0,0,1-3.29-2C12.8-.25,8.08-.62,4.47,1.7,1.86,3.37-1,7,.33,14.7A64.52,64.52,0,0,0,5.2,31.37a26.68,26.68,0,0,1,2.57,8.87,125.32,125.32,0,0,0,4.48,20.49c4.13,13.57,7.07,14.65,7.62,14.73a.18.18,0,0,0,.19-.06c1.37-1.14,1.63-7.8,1.82-12.67.36-9.21.7-17.9,5.9-17.9s5.53,8.69,5.89,17.9c.19,4.87.45,11.53,1.81,12.67a.21.21,0,0,0,.2.06c.55-.08,3.49-1.16,7.62-14.73a127.49,127.49,0,0,0,4.48-20.49,26.68,26.68,0,0,1,2.57-8.87A64.52,64.52,0,0,0,55.22,14.7a21,21,0,0,0,.31-3.6,1.76,1.76,0,0,1-.8.2l-.23,0L46.73,10a.84.84,0,0,0-.76.23.92.92,0,0,0-.22.65L46.19,19a.94.94,0,0,1-.24.72.92.92,0,0,1-.89.23l-6.26-1.5a1,1,0,0,0-.25,0,1.07,1.07,0,0,0-1,.82l-.93,4.09c-.1.44-.19.51-.27.51s-.17-.16-.2-.55l-.38-6.8a1.2,1.2,0,0,1,.3-.87,1.24,1.24,0,0,1,.84-.4l3.7-.17a.93.93,0,0,0,.7-.34.94.94,0,0,0,.21-.76l-1.2-8.24a1,1,0,0,1,.2-.79,1,1,0,0,1,.85-.29l7.94.89A.79.79,0,0,0,50,5.24a.77.77,0,0,0,.16-.67L49.16.7Z" style="fill:#ac8349"></path>
    </g>
  </g>
</svg>
