<?xml version="1.0" encoding="UTF-8"?>
<svg xmlns="http://www.w3.org/2000/svg" viewBox="0 0 100.61 67.78">
  <g id="Layer_2" data-name="Layer 2">
    <g id="Layer_1-2" data-name="Layer 1">
      <path d="M91.68,25.34a1,1,0,0,1-1,.77.73.73,0,0,1-.25,0l-.7-.17-.07.29a1,1,0,0,1-1,.77.77.77,0,0,1-.25,0,1,1,0,0,1-.73-1.22l.07-.29-.53-.14a1,1,0,1,1,.49-1.95l.53.13.08-.29a1,1,0,0,1,1.95.49l-.07.29.7.18a1,1,0,0,1,.73,1.22ZM98.25,9l-1,4.65A3.79,3.79,0,0,1,95.59,16a3.84,3.84,0,0,1-2.06.61,3.72,3.72,0,0,1-.81-.09l-3.78-.81A3.8,3.8,0,0,1,86,11.23l1-4.66a3.81,3.81,0,0,1,4.52-2.92l3.79.82A3.81,3.81,0,0,1,98.25,9ZM95.12,23.86,94,28.48a3.81,3.81,0,0,1-3.7,2.88,3.67,3.67,0,0,1-.92-.11l-3.76-.94a3.84,3.84,0,0,1-2.77-4.62L84,21.07A3.82,3.82,0,0,1,88.6,18.3l3.76.94A3.8,3.8,0,0,1,94.69,21a3.74,3.74,0,0,1,.43,2.88ZM91,38.78l-1.5,4.51a3.83,3.83,0,0,1-4.82,2.42L81,44.49a3.81,3.81,0,0,1-2.42-4.82l1.5-4.51a3.81,3.81,0,0,1,4.82-2.42L88.6,34A3.83,3.83,0,0,1,91,38.78Zm-6.78,15-2.55,4a3.82,3.82,0,0,1-2.39,1.66,4,4,0,0,1-.84.1,3.79,3.79,0,0,1-2-.6l-3.27-2.08A3.82,3.82,0,0,1,72,51.62l2.56-4a3.82,3.82,0,0,1,5.26-1.17l3.26,2.08a3.79,3.79,0,0,1,1.67,2.39,3.72,3.72,0,0,1-.5,2.87Zm-57,2.84L24,58.7a3.79,3.79,0,0,1-2,.6,3.44,3.44,0,0,1-.84-.1,3.82,3.82,0,0,1-2.39-1.66l-2.55-4a3.82,3.82,0,0,1,1.17-5.26l3.26-2.08a3.82,3.82,0,0,1,5.26,1.17l2.56,4a3.82,3.82,0,0,1-1.17,5.26ZM13,45.49a3.75,3.75,0,0,1-1.91-2.2l-1.5-4.51A3.81,3.81,0,0,1,12,34l3.67-1.22a3.82,3.82,0,0,1,4.82,2.42L22,39.67a3.83,3.83,0,0,1-2.42,4.82l-3.67,1.22a3.81,3.81,0,0,1-1.2.19A3.68,3.68,0,0,1,13,45.49Zm-6.36-17L5.48,23.86a3.82,3.82,0,0,1,2.77-4.62L12,18.3a3.82,3.82,0,0,1,4.62,2.77l1.15,4.62a3.78,3.78,0,0,1-.43,2.88,3.64,3.64,0,0,1-1,1.1,3.78,3.78,0,0,1-1.34.64l-3.75.94a3.69,3.69,0,0,1-.93.11,3.81,3.81,0,0,1-3.69-2.88ZM3.36,13.64,2.36,9A3.8,3.8,0,0,1,5.28,4.47l3.78-.82a3.83,3.83,0,0,1,4.53,2.92l1,4.66a3.82,3.82,0,0,1-2.92,4.52l-3.79.81a3.57,3.57,0,0,1-.8.09,3.82,3.82,0,0,1-3.72-3ZM94.47.26A8.22,8.22,0,0,0,84.29,6.94c-1.47,9.48-4,23.4-9.32,34.8q-4.38,9.48-10.31,14.43A21.9,21.9,0,0,1,52.38,61.4c-.68.06-1.38.09-2.08.09-7,0-13-3-18.06-9.05a47.51,47.51,0,0,1-6.61-10.7c-5.28-11.4-7.84-25.32-9.32-34.8A8.2,8.2,0,1,0,.1,9.48c2.22,14.23,5.1,25.6,8.8,34.76,4.67,11.52,10.61,19.41,17.71,23.54a9.38,9.38,0,0,1-1.25-5.61,5.86,5.86,0,0,1,3.57-4.45l.35-.16A7.49,7.49,0,0,1,37,58.94c2.16,1.92,6.4,4.57,13.25,4.57,8.28,0,13.19-3.86,15-5.64a5.44,5.44,0,0,1,6.41-.15c1.88,1.19,3.28,2.52,3.57,4.45A9.39,9.39,0,0,1,74,67.78C81.1,63.65,87,55.76,91.7,44.24c3.71-9.16,6.59-20.53,8.81-34.76a8.2,8.2,0,0,0-6-9.22Zm.39,10.32a1,1,0,0,1-1,.8l-.22,0L93,11.2l-.07.3a1,1,0,0,1-1,.8.83.83,0,0,1-.22,0,1,1,0,0,1-.77-1.2l.06-.29-.54-.12a1,1,0,1,1,.43-2l.54.12.06-.3a1,1,0,0,1,1.2-.77,1,1,0,0,1,.77,1.2l-.06.29.71.15a1,1,0,0,1,.77,1.2Zm0-3.86-3.78-.81a1.17,1.17,0,0,0-.32,0,1.51,1.51,0,0,0-1.47,1.19l-1,4.65a1.51,1.51,0,0,0,.21,1.13,1.46,1.46,0,0,0,.94.65l3.79.82a1.51,1.51,0,0,0,1.13-.21,1.46,1.46,0,0,0,.65-.94l1-4.65a1.51,1.51,0,0,0-1.15-1.79ZM6.73,11.38a1,1,0,0,1-.21-2l.71-.15-.07-.29a1,1,0,1,1,2-.43l.07.3.54-.12a1,1,0,1,1,.42,2l-.54.12.06.29a1,1,0,0,1-.77,1.2l-.21,0a1,1,0,0,1-1-.8l-.06-.3-.71.16-.21,0Zm.67,2.93,3.78-.82a1.48,1.48,0,0,0,1-.65,1.55,1.55,0,0,0,.21-1.13l-1-4.65a1.46,1.46,0,0,0-.65-.94,1.52,1.52,0,0,0-.82-.25,1.1,1.1,0,0,0-.31,0l-3.79.81A1.51,1.51,0,0,0,4.61,8.51l1,4.65A1.52,1.52,0,0,0,7.4,14.31Zm2.5,11.8a1,1,0,0,1-1-.77,1,1,0,0,1,.73-1.22l.7-.18-.07-.29a1,1,0,0,1,2-.49l.07.29.54-.13a1,1,0,0,1,.49,1.95l-.53.14.07.29a1,1,0,0,1-.74,1.22.67.67,0,0,1-.24,0,1,1,0,0,1-1-.77l-.08-.29-.69.17a.77.77,0,0,1-.25,0Zm.8,2.9,3.75-.94a1.5,1.5,0,0,0,1.09-1.82l-1.15-4.61a1.46,1.46,0,0,0-.69-.92,1.43,1.43,0,0,0-.77-.22,1.47,1.47,0,0,0-.36,0l-3.76.94A1.51,1.51,0,0,0,7.72,23.3l1.16,4.62A1.5,1.5,0,0,0,10.7,29Zm6.83,10.58-.52.18.09.28a1,1,0,0,1-.64,1.28,1.12,1.12,0,0,1-.31.05,1,1,0,0,1-1-.69l-.1-.29-.68.23a.89.89,0,0,1-.32,0,1,1,0,0,1-.32-2l.69-.23-.1-.29a1,1,0,0,1,1.92-.63l.09.28.53-.17a1,1,0,1,1,.63,1.91Zm2.19,1.95a1.51,1.51,0,0,0,.09-1.14l-1.5-4.52a1.53,1.53,0,0,0-1.9-1l-3.68,1.22a1.49,1.49,0,0,0-.86.76,1.46,1.46,0,0,0-.09,1.14l1.5,4.52a1.51,1.51,0,0,0,.75.86,1.53,1.53,0,0,0,1.15.09l3.67-1.23a1.47,1.47,0,0,0,.87-.75ZM24.1,52.38l-.47.29.16.25a1,1,0,0,1-.3,1.4,1,1,0,0,1-1.4-.31l-.16-.25-.61.38a1,1,0,0,1-.54.16,1,1,0,0,1-.85-.46,1,1,0,0,1,.31-1.4l.61-.39-.16-.25a1,1,0,0,1,.3-1.39,1,1,0,0,1,1.4.31l.16.25.47-.3a1,1,0,0,1,1.39.31,1,1,0,0,1-.31,1.4Zm-.16-3.79a1.49,1.49,0,0,0-2.07-.46L18.6,50.21a1.51,1.51,0,0,0-.65.94,1.45,1.45,0,0,0,.2,1.13l2.55,4a1.51,1.51,0,0,0,2.07.47L26,54.67a1.5,1.5,0,0,0,.46-2.07l-2.56-4ZM80.51,54.1a1,1,0,0,1-1.39.3L78.51,54l-.16.25a1,1,0,0,1-.85.47,1,1,0,0,1-.54-.16,1,1,0,0,1-.31-1.4l.16-.25-.47-.29a1,1,0,0,1,1.08-1.71l.47.3.16-.26a1,1,0,0,1,1.71,1.09l-.17.25.61.39a1,1,0,0,1,.31,1.4Zm1.33-3.63-3.27-2.08a1.48,1.48,0,0,0-2.07.46l-2.56,4a1.54,1.54,0,0,0,.46,2.08L77.67,57a1.51,1.51,0,0,0,2.07-.47l2.56-4a1.49,1.49,0,0,0,.19-1.13,1.51,1.51,0,0,0-.65-.94ZM87.47,40a1,1,0,0,1-1,.69.86.86,0,0,1-.32,0l-.69-.23-.09.29a1,1,0,0,1-1,.69,1.19,1.19,0,0,1-.32-.05,1,1,0,0,1-.64-1.28l.1-.28-.53-.18a1,1,0,1,1,.64-1.91l.52.17.1-.28a1,1,0,0,1,1.91.63l-.09.29.68.23A1,1,0,0,1,87.47,40Zm.4-3.84L84.2,34.93a1.58,1.58,0,0,0-.47-.07,1.5,1.5,0,0,0-1.43,1L80.8,40.4a1.46,1.46,0,0,0,.09,1.14,1.48,1.48,0,0,0,.86.75l3.68,1.23a1.52,1.52,0,0,0,1.9-1l1.5-4.52a1.51,1.51,0,0,0-.09-1.14,1.48,1.48,0,0,0-.87-.76ZM91.8,21.48,88,20.54a1.5,1.5,0,0,0-1.82,1.1l-1.16,4.61a1.47,1.47,0,0,0,0,.36,1.5,1.5,0,0,0,1.13,1.46l3.76.94a1.51,1.51,0,0,0,1.82-1.09l1.16-4.62a1.54,1.54,0,0,0-.17-1.13,1.52,1.52,0,0,0-.92-.69Z" style="fill:#ac8349"></path>
    </g>
  </g>
</svg>
