<?xml version="1.0" encoding="UTF-8"?>
<svg xmlns="http://www.w3.org/2000/svg" viewBox="0 0 59.68 89.07">
  <g id="Layer_2" data-name="Layer 2">
    <g id="Layer_1-2" data-name="Layer 1">
      <g id="Layer_2-2" data-name="Layer 2">
        <g id="Layer_1-2-2" data-name="Layer 1-2">
          <path d="M59.67,75.88a11.68,11.68,0,0,1-7.36,10.8,7.65,7.65,0,0,1,.92,2.39,11.38,11.38,0,0,0-5.16-3A11.82,11.82,0,0,0,52,81.62a9.53,9.53,0,0,1,0,2.2,8.84,8.84,0,0,0-3.88-16.77,1.38,1.38,0,0,1,0-2.76h0a11.61,11.61,0,0,1,11.6,11.59ZM12.23,37.93H48.75A3.29,3.29,0,0,0,52,35.42C53,31.1,54.72,28.7,57.08,20,61.14,5,51.45-2.22,43,.6a32.8,32.8,0,0,1-10.91,2H28.89A32.79,32.79,0,0,1,18,.6C9.53-2.22-.17,5,3.9,20,6.26,28.7,8,31.1,9,35.42a3.3,3.3,0,0,0,3.21,2.51ZM40.87,48.31A2.32,2.32,0,0,0,42.57,44h0l-3.51-1.38v-3H18.76l3.16,1.24v3.59l-1.81-.71a2.31,2.31,0,1,0-2.22,4.06,3,3,0,0,0,.52.2l3.51,1.39V53l-1.81-.72a2.31,2.31,0,0,0-1.7,4.3L21.92,58v3.59l-1.81-.71a2.31,2.31,0,1,0-1.7,4.3h0l3.51,1.38v3.55l-1.81-.67a2.31,2.31,0,1,0-1.91,4.21l.21.08L21.92,75v1.48l8.3,8.42,8.84-8.42v-3.2l1.81.71a2.31,2.31,0,0,0,1.91-4.21l-.21-.08-3.51-1.4V64.71l1.81.72a2.31,2.31,0,0,0,1.7-4.3l-3.51-1.38V56.16l1.81.71a2.31,2.31,0,0,0,1.7-4.3l-3.51-1.38V47.6ZM11.61,68.22a1.39,1.39,0,0,1,0,2.77,11.6,11.6,0,0,1-4.24-22.4,7.41,7.41,0,0,1-.92-2.39,11.24,11.24,0,0,0,5.16,3,12,12,0,0,0-3.93,4.48,9,9,0,0,1,0-2.2,8.83,8.83,0,0,0,3.93,16.74Z" style="fill:#ac8349"></path>
        </g>
      </g>
    </g>
  </g>
</svg>
