<?xml version="1.0" encoding="UTF-8"?>
<svg xmlns="http://www.w3.org/2000/svg" viewBox="0 0 76.46 111.08">
  <g id="Layer_2" data-name="Layer 2">
    <g id="Layer_1-2" data-name="Layer 1">
      <path d="M27.77,23a11.19,11.19,0,0,0,.66,9.68l-2.4,1-.11,0C14.21,38.18,7.27,44,5.28,50.85a15.28,15.28,0,0,0,.1,8.68A29.78,29.78,0,0,1,.22,50.47C-1.92,44,11.77,31.28,25.45,24.17l.11-.07c.5-.27,1.29-.68,2.21-1.14Zm29.55,27.2c-2.93-1.83-6.66-1.51-8.56-.13a18.27,18.27,0,0,1-21,0,7.41,7.41,0,0,0-4.08-1.11A8.65,8.65,0,0,0,19,50.26c-2.11,1.36-4.4,4.29-3.34,10.56a52.87,52.87,0,0,0,4,13.79,22.56,22.56,0,0,1,2.15,7.44,105.54,105.54,0,0,0,3.71,17c3.43,11.27,5.83,12,6.13,12.06.11-.09.59-.65.93-3.12.28-2,.38-4.54.48-7.22.31-7.76.59-15.09,5.13-15.09s4.83,7.33,5.13,15.09c.11,2.68.2,5.21.48,7.22.34,2.47.82,3,.93,3.12.38-.07,2.76-1,6.13-12.06a105.54,105.54,0,0,0,3.71-17,22.56,22.56,0,0,1,2.15-7.44,52.87,52.87,0,0,0,4-13.79c.84-5-.39-8.75-3.47-10.66ZM38.23,18.63a8.49,8.49,0,1,1-8.49,8.48,8.49,8.49,0,0,1,8.49-8.48Zm9.8,14A11.19,11.19,0,0,0,48.69,23c.92.46,1.71.87,2.21,1.14l.11.07C64.69,31.28,78.38,44,76.24,50.47a30,30,0,0,1-5.15,9.05,15.33,15.33,0,0,0,.09-8.67c-2-6.87-8.93-12.67-20.64-17.23l-.11,0-2.4-1ZM69.54,5.87,56,19.38v0l-2.82,2.77L52.81,22h0c-.17-.09-4-2.17-7.2-3.53l2-2.25a1.21,1.21,0,0,0,.16-.16L61.72,0l7.82,5.87ZM30.85,18.45c-3.2,1.36-7,3.44-7.2,3.53h0l-.34.19-2.8-2.76,0,0L6.92,5.87,14.74,0l14,16a1.21,1.21,0,0,0,.16.16l2,2.25Z" style="fill:#ac8349"></path>
    </g>
  </g>
</svg>
