<?xml version="1.0" encoding="UTF-8"?>
<svg xmlns="http://www.w3.org/2000/svg" viewBox="0 0 65.59 94.98">
  <g id="Layer_2" data-name="Layer 2">
    <g id="Layer_1-2" data-name="Layer 1">
      <path d="M25.61,16.18a.43.43,0,0,1-.44.74L7.57,8.3a1.4,1.4,0,0,0-1.41.07,1.37,1.37,0,0,0-.62,1.26L6.4,29.06a.43.43,0,0,1-.85.11L0,1.7,2.61,0l23,16.18Zm-11.13,5a10.67,10.67,0,0,1,10.32-.56c.2,2,.41,8.32-4.9,11s-8.43,2.17-9.68,1.82c-1-7.18,1.74-10.61,4.26-12.23Zm35.85-.28c2.37-1.7,7-2.12,10.63.15,3.81,2.37,5.34,7,4.31,13.14A64.74,64.74,0,0,1,60.4,50.85a26.5,26.5,0,0,0-2.57,8.88,126.41,126.41,0,0,1-4.49,20.49C49.21,93.81,46.27,94.89,45.72,95a.23.23,0,0,1-.2,0c-1.37-1.14-1.63-7.82-1.82-12.69-.1-2.67-.21-5.43-.45-7.92C43,69.54,41.93,66.42,40.1,65a3.34,3.34,0,0,0-2.4-.72c-5.1.12-5.43,8.76-5.79,17.91-.19,4.87-.45,11.55-1.82,12.69a.23.23,0,0,1-.2,0c-.55-.08-3.5-1.16-7.63-14.75a127.26,127.26,0,0,1-4.48-20.49,23.11,23.11,0,0,0-2.44-8.33,52.85,52.85,0,0,1-3.52-10.1q.51,0,1.14,0a25.56,25.56,0,0,0,11.43-2.81c5.77-2.88,7.25-9.42,7.63-13,4.83,2.86,9.19,4.34,13,4.41h0a1.39,1.39,0,0,0,0-2.77,19.36,19.36,0,0,1-6.73-1.58c3.56-.76,8.53-2.19,12-4.7Z" style="fill:#ac8349"></path>
    </g>
  </g>
</svg>
