<?xml version="1.0" encoding="UTF-8"?>
<svg xmlns="http://www.w3.org/2000/svg" viewBox="0 0 51.33 105.95">
  <g id="Layer_2" data-name="Layer 2">
    <g id="Layer_1-2" data-name="Layer 1">
      <path d="M38.87,89v12.52a4.42,4.42,0,0,1-3,4.19V89ZM29.5,32.75a1.24,1.24,0,0,0,1.23-1.24,1.22,1.22,0,0,0-.63-1.07,9.07,9.07,0,0,0,1.27-.76,3.74,3.74,0,0,1,3.85.08c1.43.89,2,2.61,1.56,5a27.25,27.25,0,0,1-2,7,11.94,11.94,0,0,0-1.16,4,52.44,52.44,0,0,1-1.81,8.36c-1.17,4-2.11,5.42-2.56,5.92a26.38,26.38,0,0,1-.42-4.6c-.16-4.26-.32-8.29-3.16-8.29s-3,4-3.17,8.29a27.5,27.5,0,0,1-.41,4.6c-.45-.5-1.39-1.95-2.56-5.92a51.34,51.34,0,0,1-1.81-8.36,12.17,12.17,0,0,0-1.15-4,26.75,26.75,0,0,1-2.05-7c-.4-2.35.12-4.05,1.49-4.93a4,4,0,0,1,2.13-.6,3.34,3.34,0,0,1,1.82.48,18.73,18.73,0,0,0,9.58,3.05ZM51.1,7.8,40.21,79.18H11.11L.23,7.8ZM27.77,62.31a1.92,1.92,0,0,0,1.51.43c1.19-.17,2.81-1.19,4.76-7.6A55.72,55.72,0,0,0,36,46a9.82,9.82,0,0,1,1-3.25,29,29,0,0,0,2.22-7.57c.77-4.58-1.35-6.65-2.69-7.49a6.22,6.22,0,0,0-6.58,0,11.75,11.75,0,0,1-5.2,1.69,14.31,14.31,0,0,1-3.44-1.71,6.39,6.39,0,0,0-6.66.08c-1.29.84-3.35,2.9-2.59,7.42a29.47,29.47,0,0,0,2.21,7.57,9.84,9.84,0,0,1,1,3.25,55.72,55.72,0,0,0,2,9.16c2,6.41,3.57,7.43,4.76,7.6l.28,0a1.92,1.92,0,0,0,1.23-.45c1.15-1,1.29-3.09,1.44-6.77.06-1.76.19-4.92.7-5.8.51.88.64,4,.7,5.8.15,3.68.29,5.81,1.44,6.77ZM0,5H51.33V0H0V5ZM39.84,81.64l-.7,4.58H12.19l-.7-4.58ZM29.87,106h3.55V89H29.87v17ZM15.38,89V105.7a4.42,4.42,0,0,1-3-4.19V89Zm2.46,17h3.55V89H17.84v17Zm6,0H27.4V89H23.85v17Z" style="fill:#ac8349"></path>
    </g>
  </g>
</svg>
