<?xml version="1.0" encoding="UTF-8"?>
<svg xmlns="http://www.w3.org/2000/svg" viewBox="0 0 69.87 94.71">
  <g id="Layer_2" data-name="Layer 2">
    <g id="Layer_1-2" data-name="Layer 1">
      <path d="M49,82.62c-.09.45-.18,1-.2,1.11a1.39,1.39,0,0,1-2.77,0,9.73,9.73,0,0,1,.26-1.61c.78-3.94,3.15-15.93-1.85-25.5a26.08,26.08,0,0,1-2.73-9.65c-.79-1.42-4.21-7.62-5-10.88a1.38,1.38,0,1,1,2.68-.69,33.58,33.58,0,0,0,2.3,5.53,48,48,0,0,1,2.73-12.84,1.38,1.38,0,1,1,2.58,1c0,.13-4.56,12-1.6,22.37.78-3,1.35-5.91,1.21-6.77a1.39,1.39,0,0,1,2.74-.45c.38,2.29-1.63,9.35-2,10.74a1.4,1.4,0,0,1-.29.52c5.34,10.4,2.84,23,2,27.15ZM64,2C59.3-.9,53.38-.36,50.33,1.83a33,33,0,0,1-12.1,5c-7.74.83-14.93-2.65-15-2.67l-.46-.29c-1.1-.62-2.18-1.29-3.21-2A11.86,11.86,0,0,0,13.06.08,13.62,13.62,0,0,0,5.71,2.16C1,5.19-.89,11.07.4,18.71A80.59,80.59,0,0,0,6.49,39.56C8,43.2,9.28,46.07,9.67,50.51a144.18,144.18,0,0,0,4.15,20.54c.26-7.54.76-18.5,1.57-26.41.56-5.38-.73-10.27-1.87-14.58-1.54-5.8-3-11.28,2.7-13.76s10.33.2,14,2.38c1.77,1.05,3.44,2,4.69,2s2.93-1,4.71-2c3.68-2.18,8.26-4.89,14-2.38s4.25,8,2.7,13.76c-1.14,4.31-2.43,9.2-1.88,14.58.82,7.91,1.32,18.87,1.58,26.41A145.62,145.62,0,0,0,60.2,50.51c.4-4.44,1.62-7.31,3.18-10.95a80.19,80.19,0,0,0,6.09-20.85C70.78,11,68.82,5,64,2ZM33.26,36.06c-.84,3.26-4.25,9.46-5,10.88a26.08,26.08,0,0,1-2.73,9.65c-5,9.57-2.62,21.56-1.85,25.5a8.68,8.68,0,0,1,.26,1.61,1.39,1.39,0,0,1-2.77,0c0-.15-.11-.66-.2-1.11-.82-4.15-3.32-16.75,2-27.15a1.29,1.29,0,0,1-.3-.52c-.41-1.39-2.41-8.45-2-10.74a1.38,1.38,0,1,1,2.73.45c-.14.86.43,3.76,1.21,6.78C27.54,41.07,23,29.2,23,29.06a1.39,1.39,0,0,1,.79-1.79,1.37,1.37,0,0,1,1.79.79A48,48,0,0,1,28.27,40.9a33.58,33.58,0,0,0,2.3-5.53,1.39,1.39,0,0,1,2.69.69ZM52.55,18.84c-4.46-1.95-8,.17-11.5,2.22-2.12,1.25-4.1,2.43-6.12,2.43s-4-1.18-6.11-2.43c-3.46-2-7-4.17-11.5-2.22-3.2,1.4-2.85,4-1.13,10.51,1.14,4.32,2.57,9.69,2,15.58-1.28,12.32-1.76,32.22-1.81,34.57C20.85,93,24.09,94.57,25,94.71a.58.58,0,0,0,.52-.15c1.81-1.51,2.13-9.57,2.38-16,.44-11.22.85-21.82,6.87-22a3.72,3.72,0,0,1,2.75.77c2.21,1.62,3.5,5.44,3.83,11.36.29,3.09.43,6.53.56,9.85.25,6.47.57,14.53,2.39,16a.56.56,0,0,0,.51.15c.93-.14,4.18-1.67,8.7-15.21-.06-2.35-.54-22.24-1.82-34.57-.61-5.89.81-11.26,2-15.58,1.73-6.52,2.08-9.11-1.13-10.51Z" style="fill:#ac8349"></path>
    </g>
  </g>
</svg>
