<?xml version="1.0" encoding="UTF-8"?>
<svg xmlns="http://www.w3.org/2000/svg" viewBox="0 0 94.94 51.67">
  <g id="Layer_2" data-name="Layer 2">
    <g id="Layer_1-2" data-name="Layer 1">
      <path d="M89.13,26.52c1.72.68,3.16,1.32,4.29,1.84-1.22.34-2.73.74-4.52,1.18a4.1,4.1,0,0,0,.23-1.31V26.52ZM36,0a13.3,13.3,0,0,1,10.3,5.06,1.39,1.39,0,0,0,2.26,0A13.42,13.42,0,0,1,58.89,0c3.26,0,11,4.1,18.79,10,6.81,5.12,12.44,10.6,15.84,15.36C86.15,22,69.82,16,47.47,16l-2.08,0h0c-3.81.06-7.63.3-11.38.71l-2.71.34h0A108.38,108.38,0,0,0,1.42,25.34c3.4-4.76,9-10.25,15.84-15.37C25.07,4.1,32.79,0,36,0Zm11.4,51.67C47,51.67,9,52.19,0,30.81a181.63,181.63,0,0,0,47.47,6.58,181.56,181.56,0,0,0,47.47-6.58C91.33,39.42,82.71,45.53,69.25,49A92.39,92.39,0,0,1,47.5,51.67h-.06ZM59.72,19.44a8.92,8.92,0,0,1,1,4.15v6.57a1.54,1.54,0,0,1-1,1.41,13.76,13.76,0,0,1-10,.05,1.49,1.49,0,0,1-1-1.4V23.59a9.08,9.08,0,0,1,1.37-4.76c3.32.08,6.48.29,9.5.61ZM5.81,28.23A3.84,3.84,0,0,0,6,29.54c-1.79-.44-3.31-.84-4.52-1.18,1.13-.53,2.57-1.16,4.29-1.85v1.72Zm12.07,1a11.87,11.87,0,0,1-8.57.05,1.14,1.14,0,0,1-.73-1.06V25.46a103.75,103.75,0,0,1,10-3.08v5.8a1.14,1.14,0,0,1-.74,1.06Zm1,2.59a4.27,4.27,0,0,0,.68-.33,3.85,3.85,0,0,0,1.22,1l-2.53-.41c.21-.07.42-.14.63-.23ZM30.71,20a7.63,7.63,0,0,1,.71,3.22v5.74A1.14,1.14,0,0,1,30.68,30a11.78,11.78,0,0,1-8.56,0A1.11,1.11,0,0,1,21.39,29V23.2a7.1,7.1,0,0,1,.16-1.53c2.83-.64,5.89-1.22,9.16-1.69Zm1.34,12.44A4.18,4.18,0,0,0,33.81,34q-2.93-.24-5.68-.56a15.91,15.91,0,0,0,3.54-.88l.38-.18ZM44.72,18.84a9,9,0,0,1,1.36,4.75v6.57a1.53,1.53,0,0,1-1,1.41,13.76,13.76,0,0,1-10,.05,1.49,1.49,0,0,1-1-1.4V23.59a9,9,0,0,1,1-4.16c3.14-.32,6.32-.52,9.5-.59Zm2.72,14.49a4.33,4.33,0,0,0,1.39.88c.34.13.74.26,1.19.4l-2.55,0c-.91,0-1.82,0-2.72,0,.44-.13.89-.27,1.34-.44a4.24,4.24,0,0,0,1.35-.83Zm15.83-.73a15.78,15.78,0,0,0,3.54.88c-1.88.22-3.83.41-5.82.57a4.21,4.21,0,0,0,1.87-1.64l.41.19Zm9.55-2.55a11.8,11.8,0,0,1-8.57,0,1.17,1.17,0,0,1-.73-1.07V23.2A7.55,7.55,0,0,1,64.23,20c3.27.47,6.33,1.05,9.16,1.7a7.59,7.59,0,0,1,.16,1.51V29a1.11,1.11,0,0,1-.73,1.06Zm3.26,1.78c.21.09.42.16.63.23l-2.53.41a3.75,3.75,0,0,0,1.22-1,3.89,3.89,0,0,0,.68.33Zm.24-9.44c3.85,1,7.22,2.06,10,3.08v2.76a1.14,1.14,0,0,1-.73,1.06,11.87,11.87,0,0,1-8.57-.05,1.14,1.14,0,0,1-.74-1.06V22.39Z" style="fill:#ac8349"></path>
    </g>
  </g>
</svg>
