<?xml version="1.0" encoding="UTF-8"?>
<svg xmlns="http://www.w3.org/2000/svg" viewBox="0 0 71.58 80.92">
  <g id="Layer_2" data-name="Layer 2">
    <g id="Layer_1-2" data-name="Layer 1">
      <path d="M68.47,70a7.79,7.79,0,0,1-7.78,7.78H34.62a31.48,31.48,0,0,1-31-26.09,20.15,20.15,0,0,1-.31-3.19c.22.15.45.29.68.42a8,8,0,0,0-.22,1,7.14,7.14,0,0,0,1.5,5.59L8,58.9a7.22,7.22,0,0,0,6.87,2.57,7.53,7.53,0,0,0,4.78,4.87l4.08,1.35a7.6,7.6,0,0,0,6-.51,7.44,7.44,0,0,0,5.14,2.07h3.92a7.42,7.42,0,0,0,3.91-1.14,7.4,7.4,0,0,0,3.91,1.14h3.91a7.44,7.44,0,0,0,4.89-1.84,7.46,7.46,0,0,0,4.89,1.84h3.92a7.51,7.51,0,0,0,4.31-1.4V70Z" style="fill:#ac8349;fill-rule:evenodd"></path>
      <path d="M71.58,61.86a7.43,7.43,0,0,0-7.42-7.4H60.24a7.46,7.46,0,0,0-4.89,1.84,7.44,7.44,0,0,0-4.89-1.84H46.55a7.4,7.4,0,0,0-3.91,1.14,7.42,7.42,0,0,0-3.91-1.14H34.81a7.34,7.34,0,0,0-3.4.84,7.42,7.42,0,0,0-2.93-1.83l-4.09-1.35a7.37,7.37,0,0,0-3.61-.28A7.1,7.1,0,0,0,19,49L16,45.94a7.31,7.31,0,0,0-1.51-1.14,7.24,7.24,0,0,0,.4-2.4V38.51A7.3,7.3,0,0,0,13.92,35a29.22,29.22,0,0,1,20.7-8.55h5.84V23.34H34.62A32,32,0,0,0,14.85,30.1V26.84a7.55,7.55,0,0,0-.4-2.4A7,7,0,0,0,16,23.3L19,20.25a7,7,0,0,0,1.74-2.84,7.41,7.41,0,0,0,3.62-.28l4.08-1.35a7.3,7.3,0,0,0,2.94-1.84,7.22,7.22,0,0,0,3.4.84h3.92a7.32,7.32,0,0,0,3.91-1.13,7.3,7.3,0,0,0,3.91,1.13h3.91a7.37,7.37,0,0,0,3.07-.66l-1.28-2.83a4.39,4.39,0,0,1-1.79.38H46.55a4.38,4.38,0,0,1-2.88-1.12,1.55,1.55,0,0,0-2.07,0,4.36,4.36,0,0,1-2.87,1.12H34.81a4.28,4.28,0,0,1-2.73-1,1.56,1.56,0,0,0-2.19.21l-.11.15a4.36,4.36,0,0,1-2.29,1.8l-4.08,1.35A4.3,4.3,0,0,1,20.2,14a1.56,1.56,0,0,0-2.06.79,1.58,1.58,0,0,0-.13.57A3.93,3.93,0,0,1,16.84,18L13.76,21.1a4,4,0,0,1-1.84,1A1.56,1.56,0,0,0,10.81,24a1.92,1.92,0,0,0,.21.46,4.2,4.2,0,0,1,.72,2.35v3.89a4.22,4.22,0,0,1-1.13,2.84,1.59,1.59,0,0,0,0,2.1,4.2,4.2,0,0,1,1.13,2.84v3.89A4.2,4.2,0,0,1,11,44.76a1.55,1.55,0,0,0,.44,2.15,1.37,1.37,0,0,0,.46.21,4.05,4.05,0,0,1,1.84,1l3.08,3.07A3.93,3.93,0,0,1,18,53.9a1.55,1.55,0,0,0,.74,1.26,1.52,1.52,0,0,0,1.45.09,4.4,4.4,0,0,1,3.21-.17l4.09,1.35a4.37,4.37,0,0,1,2.28,1.8,1.56,1.56,0,0,0,2.16.46l.14-.1a4.23,4.23,0,0,1,2.73-1h3.92A4.26,4.26,0,0,1,41.6,58.7a1.55,1.55,0,0,0,2.07,0,4.28,4.28,0,0,1,2.88-1.12h3.91a4.32,4.32,0,0,1,3.6,1.92,1.61,1.61,0,0,0,2.26.34,2.13,2.13,0,0,0,.33-.34,4.32,4.32,0,0,1,3.59-1.92h3.92a4.28,4.28,0,1,1,0,8.55H60.24a4.31,4.31,0,0,1-3.6-1.92,1.61,1.61,0,0,0-2.26-.34,2.13,2.13,0,0,0-.33.34,4.32,4.32,0,0,1-3.59,1.92H46.55A4.28,4.28,0,0,1,43.67,65a1.55,1.55,0,0,0-2.07,0,4.26,4.26,0,0,1-2.87,1.12H34.81a4.35,4.35,0,0,1-3.58-1.89,1.51,1.51,0,0,0-1.07-.67,1.55,1.55,0,0,0-1.21.35,4.42,4.42,0,0,1-4.26.82l-4.08-1.35a4.41,4.41,0,0,1-3-4A1.56,1.56,0,0,0,16,57.89a1.61,1.61,0,0,0-.61.15,4.06,4.06,0,0,1-5-1.09l-2.74-3.4a4,4,0,0,1-.28-4.67,1.55,1.55,0,0,0-1-2.33,4.26,4.26,0,0,1-3.31-4c0-.73,0-1.44,0-2.09v-2a4.22,4.22,0,0,1,1.13-2.84,1.57,1.57,0,0,0,0-2.09,4.25,4.25,0,0,1-1.13-2.85V26.84a4.28,4.28,0,0,1,3.32-4.15,1.54,1.54,0,0,0,1.15-1.87,1.32,1.32,0,0,0-.19-.46,4,4,0,0,1,.28-4.67l2.73-3.4a4.07,4.07,0,0,1,5-1.1,1.55,1.55,0,0,0,2.08-.72,1.44,1.44,0,0,0,.15-.61,4.4,4.4,0,0,1,3-4l4.09-1.36a4.5,4.5,0,0,1,4.25.82,1.53,1.53,0,0,0,1.21.36A1.58,1.58,0,0,0,31.23,5a4.32,4.32,0,0,1,3.58-1.89h3.92A4.36,4.36,0,0,1,41.6,4.23a1.55,1.55,0,0,0,2.07,0,4.38,4.38,0,0,1,2.88-1.12h3.91A4.33,4.33,0,0,1,54.06,5a1.61,1.61,0,0,0,2.26.33A1.72,1.72,0,0,0,56.65,5a4.33,4.33,0,0,1,3.59-1.93h3.92a4.46,4.46,0,0,1,1.68.34L67,.58A7.48,7.48,0,0,0,64.16,0H60.24a7.41,7.41,0,0,0-4.89,1.84A7.39,7.39,0,0,0,50.46,0H46.55a7.39,7.39,0,0,0-3.91,1.13A7.41,7.41,0,0,0,38.73,0H34.81a7.4,7.4,0,0,0-5.14,2.07,7.58,7.58,0,0,0-6-.52L19.63,2.9a7.53,7.53,0,0,0-4.78,4.88A7.19,7.19,0,0,0,8,10.35L5.24,13.74a7.17,7.17,0,0,0-1.49,5.59,6.64,6.64,0,0,0,.23,1,7.34,7.34,0,0,0-4,6.53v3.89a7.32,7.32,0,0,0,1.13,3.89A7.37,7.37,0,0,0,0,38.51V42.4c0,.06,0,.11,0,.16A66.05,66.05,0,0,0,.57,52.4,34.55,34.55,0,0,0,34.62,80.92H60.69A10.91,10.91,0,0,0,71.58,70V62.24h0c0-.13,0-.25,0-.38Z" style="fill:#ac8349;fill-rule:evenodd"></path>
    </g>
  </g>
</svg>
